<svg width="284" height="86" viewBox="0 0 284 86" fill="none" xmlns="http://www.w3.org/2000/svg">
<path d="M0 12C0 5.37258 5.37258 0 12 0H272C278.627 0 284 5.37258 284 12V74C284 80.6274 278.627 86 272 86H12C5.37258 86 0 80.6274 0 74V12Z" fill="#6C1CD3"/>
<g clip-path="url(#clip0_221_46)">
<path d="M211 8H60V83H211V8Z" fill="#6C1CD3"/>
<path d="M95.2077 26.7333L84.6842 26.6385L84.6842 33.4666H102.124L84 56.1877V61.9659H95.2077V68.6208H101.932V61.9658H113.364C113.46 61.6996 113.494 60.9817 112.886 60.3241C111.877 59.2279 111.075 58.0824 110.338 56.6418C110.002 55.9997 109.747 55.2308 109.651 55.1682C107.399 55.0673 94.4482 55.0934 94.4552 55.0133L112.596 32.1529V26.7333H101.932V20H95.2077V26.7333Z" fill="white"/>
<path d="M143.769 23.5547C143.609 23.6173 143.561 27.0779 143.561 40.1844C143.561 57.8946 143.545 57.5971 144.346 59.116C145.066 60.4784 146.827 61.6997 148.797 62.2008C149.885 62.4827 153.088 62.514 154.321 62.2635C155.906 61.9346 156.21 61.4649 155.585 60.2591C155.185 59.5075 154.657 57.8633 154.529 56.9551C154.353 55.8746 154.128 55.7024 152.783 55.7337C152.143 55.7494 151.535 55.7024 151.423 55.6398C150.766 55.2326 150.766 55.123 150.766 39.2605C150.766 29.0666 150.718 23.9461 150.606 23.7426C150.446 23.4607 150.238 23.445 147.196 23.4607C145.418 23.4607 143.865 23.5077 143.769 23.5547Z" fill="white"/>
<path d="M158.451 23.6014C158.243 23.7267 158.211 25.731 158.211 40.0746C158.211 55.5299 158.227 56.4695 158.515 57.5499C159.06 59.6795 160.293 60.9792 162.63 61.9344C163.527 62.2946 163.927 62.3572 165.736 62.4042C168.154 62.4668 169.387 62.2946 170.62 61.6839C171.837 61.1045 171.869 60.6974 170.828 59.2098C170.412 58.6147 169.771 57.5969 169.419 56.9549L168.779 55.7805L167.61 55.7648C166.153 55.7335 166.009 55.6709 165.736 54.9975C165.528 54.5434 165.496 52.2102 165.496 39.2603C165.496 29.0664 165.448 23.9459 165.336 23.7424C165.176 23.4605 164.968 23.4448 161.926 23.4448C160.149 23.4448 158.579 23.5231 158.451 23.6014Z" fill="white"/>
<path d="M201.041 26.968C199.744 27.5474 199.072 28.5495 199.056 29.9432C199.04 31.1333 199.536 32.0415 200.545 32.6835C201.793 33.5134 203.795 33.2785 204.836 32.1824C206.164 30.7888 205.892 28.3773 204.259 27.2968C203.411 26.7331 201.922 26.5922 201.041 26.968ZM203.603 27.5474C205.412 28.4399 205.684 30.7261 204.147 32.0571C203.491 32.6208 203.026 32.7461 202.018 32.6522C199.232 32.386 198.687 28.5652 201.281 27.4221C201.986 27.1089 202.802 27.1559 203.603 27.5474Z" fill="white"/>
<path d="M201.153 28.2521C201.041 28.44 201.025 31.3526 201.137 31.6501C201.185 31.791 201.329 31.9006 201.457 31.9006C201.617 31.9006 201.681 31.6814 201.681 31.1177C201.681 30.413 201.713 30.3347 202.05 30.3347C202.306 30.3347 202.53 30.554 202.882 31.1177C203.17 31.5875 203.459 31.9006 203.635 31.9006C204.019 31.9006 204.003 31.838 203.41 30.9924C203.058 30.4913 202.962 30.2565 203.106 30.2095C203.523 30.0685 203.923 29.5518 203.923 29.1603C203.923 28.4557 203.41 28.1425 202.258 28.1425C201.681 28.1425 201.185 28.1895 201.153 28.2521ZM203.09 28.7532C203.218 28.8158 203.282 29.0507 203.25 29.2543C203.202 29.5831 203.106 29.6301 202.45 29.6771L201.681 29.724V29.176C201.681 28.6279 201.697 28.6123 202.29 28.6123C202.61 28.6123 202.978 28.6749 203.09 28.7532Z" fill="white"/>
<path d="M123.627 33.3885C123.547 33.4198 122.923 33.5607 122.266 33.7016C118.152 34.6255 114.517 37.7103 112.98 41.625C112.131 43.786 111.827 45.4615 111.811 47.9512C111.795 51.4432 112.516 54.0112 114.165 56.454C116.022 59.1943 118.744 61.0577 122.266 61.9973C123.467 62.3104 123.996 62.3574 126.749 62.3574C129.471 62.3574 130.032 62.3104 131.169 62.0129C133.986 61.2456 136.388 59.9773 138.325 58.1765C139.558 57.0491 139.542 56.7359 138.293 55.7963C137.781 55.4049 136.852 54.5593 136.244 53.9016C135.476 53.103 135.011 52.7272 134.771 52.7272C134.547 52.7272 134.035 53.0404 133.538 53.5101C131.825 55.0291 129.664 55.7494 126.83 55.7337C124.236 55.718 122.346 55.0604 121.146 53.7137C120.537 53.0404 119.769 51.5058 119.609 50.6446L119.512 50.0652H129.487C134.979 50.0652 139.574 50.0026 139.686 49.9243C140.215 49.5954 140.343 47.3249 139.959 44.8508C139.046 38.9317 135.427 34.9543 129.744 33.6233C128.735 33.3885 127.902 33.3102 126.109 33.3258C124.828 33.3258 123.723 33.3571 123.627 33.3885ZM127.902 39.4328C129.071 39.6677 130.512 40.4506 131.185 41.2022C131.809 41.8912 132.449 43.1283 132.61 43.9269L132.722 44.428H126.189H119.673L119.785 43.9269C120.265 41.8129 122.122 40.0435 124.428 39.4798C125.453 39.2292 126.83 39.2136 127.902 39.4328Z" fill="white"/>
<path d="M181.828 33.5294C176.144 34.7664 172.301 38.6812 171.1 44.4593C170.38 47.8729 170.78 51.8503 172.141 54.7002C173.998 58.6463 177.376 61.1987 181.988 62.1225C183.445 62.42 184.021 62.4514 186.311 62.3887C188.248 62.3261 189.289 62.2165 190.185 61.9816C192.923 61.2769 195.325 59.9929 197.166 58.2704C198.575 56.9394 198.575 56.8768 197.054 55.6397C196.35 55.076 195.405 54.1835 194.957 53.6667C193.916 52.4923 193.644 52.4766 192.475 53.5101C190.73 55.0604 188.648 55.7494 185.75 55.7337C181.683 55.718 179.314 54.0112 178.545 50.5663L178.433 50.1599H198.719C199.408 49.6745 199.152 44.5376 198.319 42.1574C198.159 41.6877 197.727 40.7481 197.374 40.0905C195.501 36.5829 192.507 34.4063 188.344 33.545C187.015 33.2632 183.092 33.2632 181.828 33.5294ZM186.823 39.4328C187.912 39.6677 189.033 40.2157 189.833 40.9204C190.506 41.5311 191.594 43.4571 191.594 44.0522V44.428H178.593L178.705 43.9895C179.538 40.6385 183.06 38.6498 186.823 39.4328Z" fill="white"/>
</g>
<defs>
<clipPath id="clip0_221_46">
<rect width="151" height="75" fill="white" transform="translate(60 8)"/>
</clipPath>
</defs>
</svg>
